<svg width="8" height="8" viewBox="0 0 8 8" fill="none" xmlns="http://www.w3.org/2000/svg">
<path d="M3.72601 6.52308C3.75659 6.5675 3.79751 6.60381 3.84524 6.6289C3.89297 6.65398 3.94609 6.66709 4.00001 6.66709C4.05393 6.66709 4.10705 6.65398 4.15478 6.6289C4.20251 6.60381 4.24343 6.5675 4.27401 6.52308L7.27401 2.18975C7.30873 2.13977 7.3291 2.08123 7.33289 2.02048C7.33668 1.95974 7.32375 1.89912 7.29551 1.84521C7.26726 1.7913 7.22478 1.74616 7.17269 1.7147C7.12059 1.68324 7.06087 1.66665 7.00001 1.66675L1.00001 1.66675C0.939291 1.667 0.879789 1.6838 0.827903 1.71534C0.776017 1.74687 0.73371 1.79196 0.705532 1.84575C0.677354 1.89953 0.664371 1.95998 0.667979 2.02059C0.671587 2.0812 0.69165 2.13969 0.726009 2.18975L3.72601 6.52308Z" fill="black"/>
</svg>
