<svg width="17" height="15" viewBox="0 0 17 15" fill="none" xmlns="http://www.w3.org/2000/svg">
<path d="M16.9778 4.66892V11.5444C16.9778 12.2454 16.7096 12.9198 16.2282 13.4294C15.7467 13.9389 15.0886 14.2449 14.3887 14.2846L14.2333 14.2888H2.83331C2.13231 14.2889 1.45786 14.0207 0.948316 13.5392C0.438777 13.0578 0.132777 12.3996 0.0930895 11.6998L0.0888672 11.5444V4.66892L8.23944 8.93843C8.33012 8.98592 8.43095 9.01073 8.53331 9.01073C8.63567 9.01073 8.7365 8.98592 8.82718 8.93843L16.9778 4.66892ZM2.83331 0.777718H14.2333C14.9136 0.777636 15.5696 1.0302 16.0742 1.48643C16.5788 1.94266 16.896 2.57004 16.9642 3.24687L8.53331 7.66332L0.102378 3.24687C0.167842 2.59691 0.462998 1.99162 0.934789 1.5398C1.40658 1.08797 2.02406 0.819253 2.67624 0.78194L2.83331 0.777718H14.2333H2.83331Z" fill="white"/>
</svg>
