<svg width="18" height="18" viewBox="0 0 18 18" fill="none" xmlns="http://www.w3.org/2000/svg">
<path d="M16.2534 4.4131C13.6934 0.466434 8.46672 -0.706899 4.41338 1.74643C0.466716 4.19977 -0.813283 9.5331 1.74672 13.4798L1.96005 13.7998L1.10672 16.9998L4.30672 16.1464L4.62672 16.3598C6.01338 17.1064 7.50672 17.5331 9.00005 17.5331C10.6 17.5331 12.2 17.1064 13.5867 16.2531C17.5334 13.6931 18.7067 8.46643 16.2534 4.4131ZM14.0134 12.6264C13.5867 13.2664 13.0534 13.6931 12.3067 13.7998C11.88 13.7998 11.3467 14.0131 9.21338 13.1598C7.40005 12.3064 5.90672 10.9198 4.84005 9.31977C4.20005 8.5731 3.88005 7.6131 3.77338 6.6531C3.77338 5.79977 4.09338 5.0531 4.62672 4.51977C4.84005 4.30643 5.05338 4.19977 5.26672 4.19977H5.80005C6.01338 4.19977 6.22672 4.19977 6.33338 4.62643C6.54672 5.15977 7.08005 6.43977 7.08005 6.54643C7.18672 6.6531 7.18672 6.86643 7.08005 6.9731C7.18672 7.18643 7.08005 7.39977 6.97338 7.50643C6.86672 7.6131 6.76005 7.82643 6.65338 7.9331C6.44005 8.03977 6.33338 8.2531 6.44005 8.46643C6.86672 9.10643 7.40005 9.74643 7.93338 10.2798C8.57338 10.8131 9.21338 11.2398 9.96005 11.5598C10.1734 11.6664 10.3867 11.6664 10.4934 11.4531C10.6 11.2398 11.1334 10.7064 11.3467 10.4931C11.56 10.2798 11.6667 10.2798 11.88 10.3864L13.5867 11.2398C13.8 11.3464 14.0134 11.4531 14.12 11.5598C14.2267 11.8798 14.2267 12.3064 14.0134 12.6264Z" fill="white"/>
</svg>
